<?xml version="1.0" encoding="UTF-8"?> <svg xmlns="http://www.w3.org/2000/svg" xmlns:xlink="http://www.w3.org/1999/xlink" version="1.1" width="512px" height="512px" style="shape-rendering:geometricPrecision; text-rendering:geometricPrecision; image-rendering:optimizeQuality; fill-rule:evenodd; clip-rule:evenodd"><g><path style="opacity:0.981" fill="#f79c37" d="M 204.5,-0.5 C 208.5,-0.5 212.5,-0.5 216.5,-0.5C 220.479,1.31481 223.312,4.31481 225,8.5C 225.667,22.5 225.667,36.5 225,50.5C 220.652,58.9149 213.819,61.7483 204.5,59C 201.74,57.8211 199.74,55.9877 198.5,53.5C 197.736,50.9823 196.736,48.649 195.5,46.5C 194.181,35.4019 194.181,24.4019 195.5,13.5C 196.488,10.9239 197.488,8.25724 198.5,5.5C 198.369,4.76109 198.536,4.09442 199,3.5C 201.015,2.30342 202.849,0.970083 204.5,-0.5 Z"></path></g><g><path style="opacity:0.929" fill="#b67ba8" d="M 198.5,5.5 C 197.488,8.25724 196.488,10.9239 195.5,13.5C 195.018,10.1694 196.018,7.50271 198.5,5.5 Z"></path></g><g><path style="opacity:0.999" fill="#f69c39" d="M 151.5,67.5 C 144.927,59.422 137.76,51.7553 130,44.5C 129.601,44.7284 129.435,45.0618 129.5,45.5C 124.203,39.8125 123.203,33.4792 126.5,26.5C 128.929,25.1449 130.262,23.4783 130.5,21.5C 137.144,17.3954 143.811,17.562 150.5,22C 158,29.5 165.5,37 173,44.5C 178.006,52.4274 177.506,59.9274 171.5,67C 164.928,71.4163 158.261,71.583 151.5,67.5 Z"></path></g><g><path style="opacity:0.999" fill="#f69b3a" d="M 260.5,70.5 C 258.067,69.5869 255.567,68.5869 253,67.5C 252.601,67.7284 252.435,68.0618 252.5,68.5C 245.651,64.4849 243.151,58.4849 245,50.5C 245.941,48.2726 247.108,46.2726 248.5,44.5C 255.802,38.7245 262.969,32.0578 270,24.5C 270.464,23.9056 270.631,23.2389 270.5,22.5C 275.916,18.2842 281.916,17.4509 288.5,20C 297.251,26.7 298.751,34.8666 293,44.5C 285.5,52 278,59.5 270.5,67C 267.439,69.0347 264.105,70.2014 260.5,70.5 Z"></path></g><g><path style="opacity:0.69" fill="#b97ad4" d="M 130.5,21.5 C 130.262,23.4783 128.929,25.1449 126.5,26.5C 127.08,24.2512 128.413,22.5846 130.5,21.5 Z"></path></g><g><path style="opacity:0.706" fill="#cf64ab" d="M 270.5,22.5 C 270.631,23.2389 270.464,23.9056 270,24.5C 262.969,32.0578 255.802,38.7245 248.5,44.5C 255.5,36.8333 262.833,29.5 270.5,22.5 Z"></path></g><g><path style="opacity:0.027" fill="#db64a6" d="M 151.5,67.5 C 143.833,60.5 136.5,53.1667 129.5,45.5C 129.435,45.0618 129.601,44.7284 130,44.5C 137.76,51.7553 144.927,59.422 151.5,67.5 Z"></path></g><g><path style="opacity:0.929" fill="#a17b9f" d="M 195.5,46.5 C 196.736,48.649 197.736,50.9823 198.5,53.5C 196.166,51.8243 195.166,49.491 195.5,46.5 Z"></path></g><g><path style="opacity:0.733" fill="#b962ae" d="M 260.5,70.5 C 257.505,70.7062 254.838,70.0395 252.5,68.5C 252.435,68.0618 252.601,67.7284 253,67.5C 255.567,68.5869 258.067,69.5869 260.5,70.5 Z"></path></g><g><path style="opacity:1" fill="#f79b38" d="M 93.5,113.5 C 93.0075,111.181 92.0075,109.181 90.5,107.5C 89.0941,99.4798 92.0941,93.6464 99.5,90C 113.5,89.3333 127.5,89.3333 141.5,90C 149.915,94.3476 152.748,101.181 150,110.5C 148.5,114.667 145.667,117.5 141.5,119C 127.5,119.667 113.5,119.667 99.5,119C 96.7399,117.821 94.7399,115.988 93.5,113.5 Z"></path></g><g><path style="opacity:1" fill="#f79b38" d="M 273.5,113.5 C 273.008,111.181 272.008,109.181 270.5,107.5C 269.094,99.4798 272.094,93.6464 279.5,90C 293.5,89.3333 307.5,89.3333 321.5,90C 329.915,94.3476 332.748,101.181 330,110.5C 328.5,114.667 325.667,117.5 321.5,119C 307.5,119.667 293.5,119.667 279.5,119C 276.74,117.821 274.74,115.988 273.5,113.5 Z"></path></g><g><path style="opacity:0.995" fill="#f89b37" d="M 240.5,100.5 C 241.757,103.427 243.757,105.761 246.5,107.5C 250.889,112.278 253.722,117.945 255,124.5C 255.333,143.833 255.667,163.167 256,182.5C 272.188,177.749 287.022,180.415 300.5,190.5C 313.723,180.596 328.39,177.763 344.5,182C 359.519,187.183 369.185,197.35 373.5,212.5C 387.304,208.888 400.638,210.055 413.5,216C 416.02,217.697 418.353,219.53 420.5,221.5C 421.757,224.427 423.757,226.761 426.5,228.5C 430.889,233.278 433.722,238.945 435,245.5C 435.667,291.833 435.667,338.167 435,384.5C 434.79,386.058 434.29,387.391 433.5,388.5C 431.976,389.933 430.976,392.267 430.5,395.5C 428.993,399.845 426.827,403.845 424,407.5C 418.283,414.216 412.95,421.216 408,428.5C 407.178,430.788 406.511,433.122 406,435.5C 405.667,449.167 405.333,462.833 405,476.5C 403.304,484.23 399.804,490.896 394.5,496.5C 394.565,496.062 394.399,495.728 394,495.5C 392.5,497 391,498.5 389.5,500C 389.728,500.399 390.062,500.565 390.5,500.5C 384.691,505.738 378.024,509.404 370.5,511.5C 323.833,511.5 277.167,511.5 230.5,511.5C 227.392,510.447 224.392,509.114 221.5,507.5C 220.856,505.946 219.189,504.946 216.5,504.5C 202.688,496.231 195.521,483.898 195,467.5C 194.667,452.167 194.333,436.833 194,421.5C 184.241,415.035 174.074,409.201 163.5,404C 158.871,401.095 154.704,397.595 151,393.5C 129.376,366.874 107.376,340.541 85,314.5C 76.1895,302.92 73.1895,289.92 76,275.5C 80.9351,256.898 92.7684,245.398 111.5,241C 129.156,238.16 143.822,243.327 155.5,256.5C 155.062,256.435 154.728,256.601 154.5,257C 155.244,258.039 156.244,258.539 157.5,258.5C 159.5,259.833 161.167,261.5 162.5,263.5C 162.062,263.435 161.728,263.601 161.5,264C 162.947,266.49 163.947,266.657 164.5,264.5C 164.333,220.832 164.5,177.165 165,133.5C 164.903,124.851 167.403,117.184 172.5,110.5C 174.937,109.262 175.937,107.595 175.5,105.5C 175.5,104.833 175.833,104.5 176.5,104.5C 179.167,103.833 180.833,102.167 181.5,99.5C 194.233,89.5552 208.567,86.7219 224.5,91C 230.691,92.9208 236.024,96.0875 240.5,100.5 Z M 404.5,377.5 C 402.942,382.284 400.609,386.618 397.5,390.5C 376.316,412.919 368.649,439.586 374.5,470.5C 373.189,473.135 371.522,475.469 369.5,477.5C 366.963,479.716 363.963,480.883 360.5,481C 320.5,481.667 280.5,481.667 240.5,481C 231.667,480.167 226.833,475.333 226,466.5C 225.667,449.5 225.333,432.5 225,415.5C 222.163,406.66 216.996,399.493 209.5,394C 199.5,388.333 189.5,382.667 179.5,377C 160.219,355.563 141.553,333.73 123.5,311.5C 120.858,307.225 117.525,303.558 113.5,300.5C 111.189,297.337 109.022,294.003 107,290.5C 104.668,279.13 109.168,272.797 120.5,271.5C 124.228,271.374 127.561,272.374 130.5,274.5C 131.167,275.833 132.167,276.833 133.5,277.5C 145.833,290.5 158.5,303.167 171.5,315.5C 171.842,316.338 172.508,316.672 173.5,316.5C 183.028,320.488 190.195,317.821 195,308.5C 195.333,250.5 195.667,192.5 196,134.5C 197.716,123.218 204.216,118.718 215.5,121C 219.667,122.5 222.5,125.333 224,129.5C 224.333,171.833 224.667,214.167 225,256.5C 227.427,268.225 234.593,272.725 246.5,270C 249.735,268.64 252.235,266.473 254,263.5C 255.056,249.215 256.056,234.881 257,220.5C 260.781,212.695 266.947,209.862 275.5,212C 278.735,213.36 281.235,215.527 283,218.5C 284.056,232.785 285.056,247.119 286,261.5C 290.348,269.915 297.181,272.748 306.5,270C 309.735,268.64 312.235,266.473 314,263.5C 315.056,249.215 316.056,234.881 317,220.5C 320.781,212.695 326.947,209.862 335.5,212C 338.735,213.36 341.235,215.527 343,218.5C 344.056,232.785 345.056,247.119 346,261.5C 350.348,269.915 357.181,272.748 366.5,270C 374.007,265.829 377.507,259.329 377,250.5C 380.781,242.695 386.947,239.862 395.5,242C 399.667,243.5 402.5,246.333 404,250.5C 404.5,292.832 404.667,335.165 404.5,377.5 Z"></path></g><g><path style="opacity:0.847" fill="#ac77b9" d="M 181.5,99.5 C 180.833,102.167 179.167,103.833 176.5,104.5C 177.833,102.5 179.5,100.833 181.5,99.5 Z"></path></g><g><path style="opacity:0.827" fill="#a674a9" d="M 240.5,100.5 C 243.243,102.239 245.243,104.573 246.5,107.5C 243.757,105.761 241.757,103.427 240.5,100.5 Z"></path></g><g><path style="opacity:0.996" fill="#c23d9e" d="M 175.5,105.5 C 175.937,107.595 174.937,109.262 172.5,110.5C 173.11,108.566 174.11,106.899 175.5,105.5 Z"></path></g><g><path style="opacity:0.035" fill="#ac80be" d="M 90.5,107.5 C 92.0075,109.181 93.0075,111.181 93.5,113.5C 91.461,112.089 90.461,110.089 90.5,107.5 Z"></path></g><g><path style="opacity:0.035" fill="#ac80be" d="M 270.5,107.5 C 272.008,109.181 273.008,111.181 273.5,113.5C 271.461,112.089 270.461,110.089 270.5,107.5 Z"></path></g><g><path style="opacity:0.827" fill="#a674a9" d="M 420.5,221.5 C 423.243,223.239 425.243,225.573 426.5,228.5C 423.757,226.761 421.757,224.427 420.5,221.5 Z"></path></g><g><path style="opacity:0.188" fill="#ab80f4" d="M 155.5,256.5 C 156.5,256.833 157.167,257.5 157.5,258.5C 156.244,258.539 155.244,258.039 154.5,257C 154.728,256.601 155.062,256.435 155.5,256.5 Z"></path></g><g><path style="opacity:0.188" fill="#ab75f2" d="M 162.5,263.5 C 163.167,263.833 163.833,264.167 164.5,264.5C 163.947,266.657 162.947,266.49 161.5,264C 161.728,263.601 162.062,263.435 162.5,263.5 Z"></path></g><g><path style="opacity:0.984" fill="#cc3ccf" d="M 130.5,274.5 C 132.5,274.5 133.5,275.5 133.5,277.5C 132.167,276.833 131.167,275.833 130.5,274.5 Z"></path></g><g><path style="opacity:0.475" fill="#cd9294" d="M 113.5,300.5 C 117.525,303.558 120.858,307.225 123.5,311.5C 121.629,311.141 120.129,310.141 119,308.5C 116.92,305.935 115.087,303.268 113.5,300.5 Z"></path></g><g><path style="opacity:0.984" fill="#c925c3" d="M 173.5,316.5 C 172.508,316.672 171.842,316.338 171.5,315.5C 171.435,315.062 171.601,314.728 172,314.5C 172.75,315.126 173.584,315.626 174.5,316C 174.272,316.399 173.938,316.565 173.5,316.5 Z"></path></g><g><path style="opacity:0.89" fill="#b19798" d="M 404.5,377.5 C 405.097,377.735 405.43,378.235 405.5,379C 404.135,383.951 401.468,387.784 397.5,390.5C 400.609,386.618 402.942,382.284 404.5,377.5 Z"></path></g><g><path style="opacity:0.031" fill="#b47ac0" d="M 433.5,388.5 C 433.293,391.241 432.293,393.574 430.5,395.5C 430.976,392.267 431.976,389.933 433.5,388.5 Z"></path></g><g><path style="opacity:0.706" fill="#ba5489" d="M 374.5,470.5 C 375.043,470.56 375.376,470.893 375.5,471.5C 374.533,473.63 373.366,475.63 372,477.5C 371.023,478.774 370.189,478.774 369.5,477.5C 371.522,475.469 373.189,473.135 374.5,470.5 Z"></path></g><g><path style="opacity:0.145" fill="#8e598c" d="M 394.5,496.5 C 393.5,498.167 392.167,499.5 390.5,500.5C 390.062,500.565 389.728,500.399 389.5,500C 391,498.5 392.5,497 394,495.5C 394.399,495.728 394.565,496.062 394.5,496.5 Z"></path></g><g><path style="opacity:0.055" fill="#bb6eab" d="M 216.5,504.5 C 219.189,504.946 220.856,505.946 221.5,507.5C 219.326,507.25 217.659,506.25 216.5,504.5 Z"></path></g></svg> 