<?xml version="1.0" encoding="UTF-8"?> <svg xmlns="http://www.w3.org/2000/svg" xmlns:xlink="http://www.w3.org/1999/xlink" width="18px" height="20px" viewBox="0 0 18 20"><!-- Generator: Sketch 57.1 (83088) - https://sketch.com --><title>icon/communication/location_on_24px</title><desc>Created with Sketch.</desc><defs><path d="M9,0 C4.02428571,0 0,3.13 0,7 C0,12.25 9,20 9,20 C9,20 18,12.25 18,7 C18,3.13 13.9757143,0 9,0 Z M2.57142857,7 C2.57142857,4.24 5.45142857,2 9,2 C12.5485714,2 15.4285714,4.24 15.4285714,7 C15.4285714,9.88 11.7257143,14.19 9,16.88 C6.32571429,14.21 2.57142857,9.85 2.57142857,7 Z M9,4.5 C7.22479902,4.5 5.78571429,5.61928813 5.78571429,7 C5.78571429,8.38071187 7.22479902,9.5 9,9.5 C10.1483537,9.5 11.2094763,9.02350271 11.7836531,8.25000002 C12.35783,7.47649732 12.35783,6.52350268 11.7836531,5.74999998 C11.2094763,4.97649729 10.1483537,4.5 9,4.5 L9,4.5 Z" id="path-1"></path></defs><g id="Symbols" stroke="none" stroke-width="1" fill="none" fill-rule="evenodd"><g id="FOOTER" transform="translate(-116.000000, -212.000000)"><g id="icon/communication/location_on_24px" transform="translate(116.000000, 212.000000)"><mask id="mask-2" fill="white"><use xlink:href="#path-1"></use></mask><use fill="#F5A623" fill-rule="nonzero" xlink:href="#path-1"></use></g></g></g></svg> 